#!OML:ASF E:\CV Data\Top Level 1\Subject 1\Session 1\player.ASF
:FULLY-SPECIFIED
:DEGREES
1048
root 5.00492 16.008 -0.185566 25.0959 -33.4261 -14.0006
lowerback 17.454 -0.874079 15.2148
upperback 0.704488 2.69521 12.7299
thorax -9.11277 0.78318 5.01289
lowerneck -18.9677 8.74885 -0.591385
upperneck 12.2866 12.7167 -4.27119
head 7.09315 5.68766 0.176925
rclavicle -2.22639e-014 -5.08889e-014
rhumerus 159.21 244.983 214.866
rradius 65.557
rwrist -16.7609
rhand -43.5914 29.6317
rfingers 7.12502
rthumb -16.4278 0.307268
lclavicle -2.22639e-014 -5.08889e-014
lhumerus -72.8362 29.1364 27.8827
lradius 11.4014
lwrist -37.9672
lhand -14.0121 15.2506
lfingers 7.12502
lthumb 12.1174 44.8797
rfemur -1.68421 -4.95489 14.4853
rtibia 37.3454
rfoot 0.0183175 -22.6536
rtoes -34.4417
lfemur -64.361 17.5271 -15.448
ltibia 33.1984
lfoot 5.64427 15.5959
ltoes -0.931895
1049
root 4.9373 15.9368 0.0571052 24.3829 -29.8127 -13.6978
lowerback 16.8016 -0.527565 15.7088
upperback -0.209485 3.35614 13.2335
thorax -9.8088 1.05804 5.2197
lowerneck -19.3453 7.78164 -0.559149
upperneck 13.4678 11.3274 -3.42372
head 7.46763 5.05555 0.319452
rclavicle -1.90833e-014 -9.54166e-015
rhumerus 162.481 250.973 212.594
rradius 65.7627
rwrist -18.8183
rhand -44.0332 30.5914
rfingers 7.12502
rthumb -16.8531 1.30269
lclavicle -1.90833e-014 -9.54166e-015
lhumerus -71.466 30.1212 29.9342
lradius 11.4904
lwrist -38.031
lhand -13.466 14.3955
lfingers 7.12502
lthumb 12.644 43.9928
rfemur 0.992313 -4.92792 15.6953
rtibia 35.5502
rfoot 2.68191 -23.3532
rtoes -33.7888
lfemur -65.4201 16.0067 -16.3276
ltibia 34.6306
lfoot 7.84132 12.0977
ltoes -1.15552
1050
root 4.86807 15.8658 0.285681 23.4452 -25.9357 -13.2042
lowerback 16.2749 -0.216846 15.9965
upperback -1.13584 3.96989 13.6155
thorax -10.6071 1.31703 5.4232
lowerneck -19.8454 6.68134 -0.716082
upperneck 14.5264 9.76251 -2.47831
head 7.82161 4.3537 0.498387
rclavicle -3.18055e-015 -1.27222e-014
rhumerus 167.275 257.235 208.232
rradius 66.4872
rwrist -21.5297
rhand -44.3824 31.257
rfingers 7.12502
rthumb -17.1892 1.99727
lclavicle -3.18055e-015 -1.27222e-014
lhumerus -69.8717 31.2321 31.7057
lradius 11.6457
lwrist -38.8145
lhand -12.5022 13.2799
lfingers 7.12502
lthumb 13.5731 42.8174
rfemur 3.63183 -4.87147 16.9887
rtibia 34.0314
rfoot 5.72878 -23.6467
rtoes -32.8998
lfemur -66.4183 14.1456 -17.2313
ltibia 36.4183
lfoot 9.36059 8.49915
ltoes -0.431976
1051
root 4.79855 15.793 0.495227 22.2784 -21.846 -12.528
lowerback 15.9662 0.0476444 16.0864
upperback -2.02694 4.53572 13.8468
thorax -11.5054 1.56099 5.57631
lowerneck -20.4213 5.46094 -1.04886
upperneck 15.3323 8.0489 -1.50433
head 8.11707 3.59218 0.688726
rclavicle 3.33958e-014 8.26944e-014
rhumerus 178.603 263.66 196.776
rradius 67.7774
rwrist -24.7773
rhand -44.6734 31.7315
rfingers 7.12502
rthumb -17.4694 2.4965
lclavicle 3.33958e-014 8.26944e-014
lhumerus -67.8634 32.467 33.5351
lradius 11.8565
lwrist -39.6898
lhand -11.4042 12.0078
lfingers 7.12502
lthumb 14.6311 41.4716
rfemur 6.21157 -4.79092 18.3447
rtibia 32.8663
rfoot 9.03273 -23.1504
rtoes -31.7957
lfemur -67.1245 11.8664 -18.0719
ltibia 38.348
lfoot 10.1267 5.22912
ltoes 1.22296
1052
root 4.72733 15.6705 0.674174 20.9076 -17.6357 -11.7082
lowerback 15.9542 0.265711 16.012
upperback -2.83356 5.0636 13.9155
thorax -12.4889 1.79289 5.63414
lowerneck -20.9902 4.14571 -1.54425
upperneck 15.7744 6.23844 -0.570611
head 8.31195 2.78926 0.868383
rclavicle 3.26007e-014 -1.46306e-013
rhumerus 92.9322 272.304 281.771
rradius 69.6537
rwrist -28.418
rhand -44.9467 32.1794
rfingers 7.12502
rthumb -17.7323 2.96795
lclavicle 3.26007e-014 -1.46306e-013
lhumerus -65.1062 33.6077 36.1278
lradius 12.1745
lwrist -39.6815
lhand -10.3083 10.9283
lfingers 7.12502
lthumb 15.6867 40.3124
rfemur 8.63949 -4.69067 19.7282
rtibia 32.3705
rfoot 12.0081 -21.5105
rtoes -30.6011
lfemur -67.6469 9.16126 -18.7918
ltibia 40.436
lfoot 10.2504 2.53381
ltoes 3.34345
